ffmpeg version 6.1.1-3ubuntu5 Copyright (c) 2000-2023 the FFmpeg developers
  built with gcc 13 (Ubuntu 13.2.0-23ubuntu3)
  configuration: --prefix=/usr --extra-version=3ubuntu5 --toolchain=hardened --libdir=/usr/lib/x86_64-linux-gnu --incdir=/usr/include/x86_64-linux-gnu --arch=amd64 --enable-gpl --disable-stripping --disable-omx --enable-gnutls --enable-libaom --enable-libass --enable-libbs2b --enable-libcaca --enable-libcdio --enable-libcodec2 --enable-libdav1d --enable-libflite --enable-libfontconfig --enable-libfreetype --enable-libfribidi --enable-libglslang --enable-libgme --enable-libgsm --enable-libharfbuzz --enable-libmp3lame --enable-libmysofa --enable-libopenjpeg --enable-libopenmpt --enable-libopus --enable-librubberband --enable-libshine --enable-libsnappy --enable-libsoxr --enable-libspeex --enable-libtheora --enable-libtwolame --enable-libvidstab --enable-libvorbis --enable-libvpx --enable-libwebp --enable-libx265 --enable-libxml2 --enable-libxvid --enable-libzimg --enable-openal --enable-opencl --enable-opengl --disable-sndio --enable-libvpl --disable-libmfx --enable-libdc1394 --enable-libdrm --enable-libiec61883 --enable-chromaprint --enable-frei0r --enable-ladspa --enable-libbluray --enable-libjack --enable-libpulse --enable-librabbitmq --enable-librist --enable-libsrt --enable-libssh --enable-libsvtav1 --enable-libx264 --enable-libzmq --enable-libzvbi --enable-lv2 --enable-sdl2 --enable-libplacebo --enable-librav1e --enable-pocketsphinx --enable-librsvg --enable-libjxl --enable-shared
  libavutil      58. 29.100 / 58. 29.100
  libavcodec     60. 31.102 / 60. 31.102
  libavformat    60. 16.100 / 60. 16.100
  libavdevice    60.  3.100 / 60.  3.100
  libavfilter     9. 12.100 /  9. 12.100
  libswscale      7.  5.100 /  7.  5.100
  libswresample   4. 12.100 /  4. 12.100
  libpostproc    57.  3.100 / 57.  3.100
Routing option strict to both codec and muxer layer
[Parsed_scale_1 @ 0x63c1322d0340] w:1280 h:720 flags:'' interl:0
[Parsed_scale_4 @ 0x63c1322dda00] w:-1 h:720 flags:'' interl:0
[Parsed_scale_6 @ 0x63c1322eb0c0] w:1280 h:720 flags:'' interl:0
-vsync is deprecated. Use -fps_mode
Passing a number to -vsync is deprecated, use a string argument as described in the manual.
[h264 @ 0x63c1322f9bc0] Reinit context to 1440x1088, pix_fmt: yuv420p
Input #0, mov,mp4,m4a,3gp,3g2,mj2, from '/var/www/html/project/media/video/original/YouCut_20251103_122350571.mp4':
  Metadata:
    major_brand     : isom
    minor_version   : 512
    compatible_brands: isomiso2avc1mp41
    encoder         : Lavf58.76.100
  Duration: 00:00:01.74, start: 0.000000, bitrate: 10540 kb/s
  Stream #0:0[0x1](und): Video: h264 (High), 1 reference frame (avc1 / 0x31637661), yuv420p(tv, bt709, progressive, left), 1440x1080 (1440x1088), 10532 kb/s, SAR 1:1 DAR 4:3, 30.83 fps, 60 tbr, 1000k tbn (default)
    Metadata:
      handler_name    : VideoHandler
      vendor_id       : [0][0][0][0]
  Stream #0:1[0x2](und): Audio: aac (LC) (mp4a / 0x6134706D), 44100 Hz, stereo, fltp, 127 kb/s (default)
    Metadata:
      handler_name    : SoundHandler
      vendor_id       : [0][0][0][0]
Input #1, png_pipe, from '/var/www/html/project/static/images/templates/logo_vertical.png':
  Duration: N/A, bitrate: N/A
  Stream #1:0: Video: png, 1 reference frame, rgba(pc, gbr/unknown/unknown), 1920x1080 [SAR 2835:2835 DAR 16:9], 25 fps, 25 tbr, 25 tbn
[out#0/mp4 @ 0x63c13315a700] Creating output stream from unlabeled output of complex filtergraph 0. This overrides automatic video mapping.
[vost#0:0/libx264 @ 0x63c13315b480] Created video stream from complex filtergraph 0:[overlay:default]
[vost#0:0/libx264 @ 0x63c13315b480] 
[out#0/mp4 @ 0x63c13315a700] No explicit maps, mapping streams automatically...
[aost#0:1/aac @ 0x63c13315ce80] Created audio stream from input stream 0:1
Stream mapping:
  Stream #0:0 (h264) -> split:default (graph 0)
  Stream #1:0 (png) -> scale:default (graph 0)
  overlay:default (graph 0) -> Stream #0:0 (libx264)
  Stream #0:1 -> #0:1 (aac (native) -> aac (native))
Press [q] to stop, [?] for help
[graph_1_in_0_1 @ 0x63c1322f8940] tb:1/44100 samplefmt:fltp samplerate:44100 chlayout:stereo
[h264 @ 0x63c1323d6140] Reinit context to 1440x1088, pix_fmt: yuv420p
[in#1/png_pipe @ 0x63c1322e5f40] EOF while reading input
[in#1/png_pipe @ 0x63c1322e5f40] Terminating demuxer thread
[vist#1:0/png @ 0x63c132342040] Decoder thread received EOF packet
[vist#1:0/png @ 0x63c132342040] Decoder returned EOF, finishing
[vist#1:0/png @ 0x63c132342040] Terminating decoder thread
[Parsed_scale_1 @ 0x63c13336bb00] w:1280 h:720 flags:'' interl:0
[Parsed_scale_4 @ 0x63c133379100] w:-1 h:720 flags:'' interl:0
[Parsed_scale_6 @ 0x63c133386500] w:1280 h:720 flags:'' interl:0
[graph 0 input from stream 0:0 @ 0x63c133367ec0] w:1440 h:1080 pixfmt:yuv420p tb:1/1000000 fr:60/1 sar:1/1
[graph 0 input from stream 1:0 @ 0x63c133395740] w:1920 h:1080 pixfmt:rgba tb:1/25 fr:25/1 sar:2835/2835
[Parsed_scale_1 @ 0x63c13336bb00] w:1440 h:1080 fmt:yuv420p sar:1/1 -> w:1280 h:720 fmt:yuv420p sar:3/4 flags:0x00000004
[Parsed_boxblur_2 @ 0x63c133378bc0] luma_radius:36 luma_power:1 chroma_radius:18 chroma_power:1 alpha_radius:36 alpha_power:1 w:1280 chroma_w:640 h:720 chroma_h:360
[Parsed_setsar_3 @ 0x63c133378e40] w:1280 h:720 sar:3/4 dar:4/3 -> sar:1/1 dar:16/9
[Parsed_scale_4 @ 0x63c133379100] w:1440 h:1080 fmt:yuv420p sar:1/1 -> w:960 h:720 fmt:yuva420p sar:1/1 flags:0x00000004
[Parsed_setsar_5 @ 0x63c133386240] w:960 h:720 sar:1/1 dar:4/3 -> sar:1/1 dar:4/3
[Parsed_overlay_8 @ 0x63c1333938c0] main w:1280 h:720 fmt:yuv420p overlay w:960 h:720 fmt:yuva420p
[Parsed_overlay_8 @ 0x63c1333938c0] [framesync @ 0x63c1322f95e8] Selected 1/1000000 time base
[Parsed_overlay_8 @ 0x63c1333938c0] [framesync @ 0x63c1322f95e8] Sync level 2
[Parsed_scale_6 @ 0x63c133386500] w:1920 h:1080 fmt:rgba sar:2835/2835 -> w:1280 h:720 fmt:yuva420p sar:1/1 flags:0x00000004
[Parsed_setsar_7 @ 0x63c133368000] w:1280 h:720 sar:1/1 dar:16/9 -> sar:1/1 dar:16/9
[Parsed_overlay_9 @ 0x63c133393b80] main w:1280 h:720 fmt:yuv420p overlay w:1280 h:720 fmt:yuva420p
[Parsed_overlay_9 @ 0x63c133393b80] [framesync @ 0x63c1322f9468] Selected 1/1000000 time base
[Parsed_overlay_9 @ 0x63c133393b80] [framesync @ 0x63c1322f9468] Sync level 2
[Parsed_scale_1 @ 0x63c13336bb00] w:1440 h:1080 fmt:yuv420p sar:1/1 -> w:1280 h:720 fmt:yuv420p sar:3/4 flags:0x00000004
    Last message repeated 2 times
[Parsed_scale_4 @ 0x63c133379100] w:1440 h:1080 fmt:yuv420p sar:1/1 -> w:960 h:720 fmt:yuva420p sar:1/1 flags:0x00000004
    Last message repeated 2 times
[Parsed_scale_6 @ 0x63c133386500] w:1920 h:1080 fmt:rgba sar:2835/2835 -> w:1280 h:720 fmt:yuva420p sar:1/1 flags:0x00000004
    Last message repeated 2 times
[libx264 @ 0x63c13315b840] using SAR=1/1
[libx264 @ 0x63c13315b840] using cpu capabilities: MMX2 SSE2Fast SSSE3 SSE4.2 AVX FMA3 BMI2 AVX2
[libx264 @ 0x63c13315b840] profile High, level 3.2, 4:2:0, 8-bit
[libx264 @ 0x63c13315b840] 264 - core 164 r3108 31e19f9 - H.264/MPEG-4 AVC codec - Copyleft 2003-2023 - http://www.videolan.org/x264.html - options: cabac=1 ref=1 deblock=1:0:0 analyse=0x3:0x113 me=hex subme=2 psy=1 psy_rd=1.00:0.00 mixed_ref=0 me_range=16 chroma_me=1 trellis=0 8x8dct=1 cqm=0 deadzone=21,11 fast_pskip=1 chroma_qp_offset=0 threads=22 lookahead_threads=5 sliced_threads=0 nr=0 decimate=1 interlaced=0 bluray_compat=0 constrained_intra=0 bframes=3 b_pyramid=2 b_adapt=1 b_bias=0 direct=1 weightb=1 open_gop=0 weightp=1 keyint=250 keyint_min=25 scenecut=40 intra_refresh=0 rc_lookahead=10 rc=crf mbtree=1 crf=18.0 qcomp=0.60 qpmin=0 qpmax=69 qpstep=4 ip_ratio=1.40 aq=1:1.00
Output #0, mp4, to '/var/www/html/project/media/video/watermarks/YouCut_20251103_122350571.mp4':
  Metadata:
    major_brand     : isom
    minor_version   : 512
    compatible_brands: isomiso2avc1mp41
    encoder         : Lavf60.16.100
  Stream #0:0: Video: h264, 1 reference frame (avc1 / 0x31637661), yuv420p(tv, bt709, progressive, left), 1280x720 (0x0) [SAR 1:1 DAR 16:9], q=2-31, 60 fps, 15360 tbn
    Metadata:
      encoder         : Lavc60.31.102 libx264
    Side data:
      cpb: bitrate max/min/avg: 0/0/0 buffer size: 0 vbv_delay: N/A
  Stream #0:1(und): Audio: aac (LC) (mp4a / 0x6134706D), 44100 Hz, stereo, fltp, delay 1024, 128 kb/s (default)
    Metadata:
      handler_name    : SoundHandler
      vendor_id       : [0][0][0][0]
      encoder         : Lavc60.31.102 aac
[in#0/mov,mp4,m4a,3gp,3g2,mj2 @ 0x63c1322cec80] EOF while reading input
[in#0/mov,mp4,m4a,3gp,3g2,mj2 @ 0x63c1322cec80] Terminating demuxer thread
[vist#0:0/h264 @ 0x63c1322e6280] Decoder thread received EOF packet
[vist#0:0/h264 @ 0x63c1322e6280] Decoder returned EOF, finishing
[vist#0:0/h264 @ 0x63c1322e6280] Terminating decoder thread
[Parsed_overlay_8 @ 0x63c1333938c0] [framesync @ 0x63c1322f95e8] Sync level 1
[Parsed_overlay_8 @ 0x63c1333938c0] [framesync @ 0x63c1322f95e8] Sync level 0
[Parsed_overlay_9 @ 0x63c133393b80] [framesync @ 0x63c1322f9468] Sync level 0
[aist#0:1/aac @ 0x63c13232ea80] Decoder thread received EOF packet
[aist#0:1/aac @ 0x63c13232ea80] Decoder returned EOF, finishing
[aist#0:1/aac @ 0x63c13232ea80] Terminating decoder thread
No more output streams to write to, finishing.
[out#0/mp4 @ 0x63c13315a700] All streams finished
[out#0/mp4 @ 0x63c13315a700] Terminating muxer thread
[AVIOContext @ 0x63c1332c1000] Statistics: 761548 bytes written, 2 seeks, 6 writeouts
[out#0/mp4 @ 0x63c13315a700] Output file #0 (/var/www/html/project/media/video/watermarks/YouCut_20251103_122350571.mp4):
[out#0/mp4 @ 0x63c13315a700]   Output stream #0:0 (video): 53 frames encoded; 53 packets muxed (757729 bytes); 
[out#0/mp4 @ 0x63c13315a700]   Output stream #0:1 (audio): 75 frames encoded (76800 samples); 76 packets muxed (473 bytes); 
[out#0/mp4 @ 0x63c13315a700]   Total: 129 packets (758202 bytes) muxed
[out#0/mp4 @ 0x63c13315a700] video:740kB audio:0kB subtitle:0kB other streams:0kB global headers:0kB muxing overhead: 0.440780%
frame=   53 fps= 42 q=-1.0 Lsize=     744kB time=00:00:01.71 bitrate=3545.6kbits/s speed=1.38x    
[AVIOContext @ 0x63c1322ce1c0] Statistics: 576 bytes written, 0 seeks, 3 writeouts
[libx264 @ 0x63c13315b840] frame I:1     Avg QP:17.77  size: 72802
[libx264 @ 0x63c13315b840] frame P:16    Avg QP:18.72  size: 29494
[libx264 @ 0x63c13315b840] frame B:36    Avg QP:19.77  size:  5898
[libx264 @ 0x63c13315b840] consecutive B-frames:  5.7%  7.5% 11.3% 75.5%
[libx264 @ 0x63c13315b840] mb I  I16..4:  9.8% 30.4% 59.8%
[libx264 @ 0x63c13315b840] mb P  I16..4:  5.6% 14.0%  8.8%  P16..4: 24.6% 13.7%  9.7%  0.0%  0.0%    skip:23.5%
[libx264 @ 0x63c13315b840] mb B  I16..4:  0.8%  2.4%  0.7%  B16..8: 12.1%  5.0%  1.0%  direct: 7.0%  skip:71.0%  L0:43.5% L1:40.8% BI:15.6%
[libx264 @ 0x63c13315b840] 8x8 transform intra:48.9% inter:35.4%
[libx264 @ 0x63c13315b840] coded y,uvDC,uvAC intra: 70.5% 44.2% 8.0% inter: 12.2% 14.5% 0.5%
[libx264 @ 0x63c13315b840] i16 v,h,dc,p: 30% 16% 16% 38%
[libx264 @ 0x63c13315b840] i8 v,h,dc,ddl,ddr,vr,hd,vl,hu: 22% 19% 13%  9%  6%  7%  6% 12%  7%
[libx264 @ 0x63c13315b840] i4 v,h,dc,ddl,ddr,vr,hd,vl,hu: 21% 19% 11% 11%  8%  7%  7%  9%  7%
[libx264 @ 0x63c13315b840] i8c dc,h,v,p: 52% 22% 21%  6%
[libx264 @ 0x63c13315b840] Weighted P-Frames: Y:0.0% UV:0.0%
[libx264 @ 0x63c13315b840] kb/s:3494.03
[aac @ 0x63c13315d240] Qavg: 65536.000
[in#0/mov,mp4,m4a,3gp,3g2,mj2 @ 0x63c1322cec80] Input file #0 (/var/www/html/project/media/video/original/YouCut_20251103_122350571.mp4):
[in#0/mov,mp4,m4a,3gp,3g2,mj2 @ 0x63c1322cec80]   Input stream #0:0 (video): 53 packets read (2263276 bytes); 53 frames decoded; 0 decode errors; 
[in#0/mov,mp4,m4a,3gp,3g2,mj2 @ 0x63c1322cec80]   Input stream #0:1 (audio): 76 packets read (27702 bytes); 75 frames decoded; 0 decode errors (76800 samples); 
[in#0/mov,mp4,m4a,3gp,3g2,mj2 @ 0x63c1322cec80]   Total: 129 packets (2290978 bytes) demuxed
[AVIOContext @ 0x63c1322f8ec0] Statistics: 2329504 bytes read, 2 seeks
[in#1/png_pipe @ 0x63c1322e5f40] Input file #1 (/var/www/html/project/static/images/templates/logo_vertical.png):
[in#1/png_pipe @ 0x63c1322e5f40]   Input stream #1:0 (video): 1 packets read (93903 bytes); 1 frames decoded; 0 decode errors; 
[in#1/png_pipe @ 0x63c1322e5f40]   Total: 1 packets (93903 bytes) demuxed
[AVIOContext @ 0x63c1322dd980] Statistics: 93903 bytes read, 0 seeks
